<svg width="361" height="200" viewBox="0 0 361 200" fill="none" xmlns="http://www.w3.org/2000/svg">
<g clip-path="url(#clip0_393_1212)">
<rect width="361" height="200" fill="#4DAFFF"/>
<g filter="url(#filter0_d_393_1212)">
<circle cx="179.875" cy="99.875" r="53.875" fill="#EAEAEA"/>
<path d="M167.173 129.909C168.471 133.628 169.414 138.042 168.128 142.356C167.639 143.904 164.796 147.35 157.331 148.75C138.933 140.317 125.944 121.676 126 100C126 95.6384 126.52 91.0604 127.5 87C129.9 90.0702 134.456 93.6928 136.309 94.9515C139.007 96.5265 142.098 97.5905 145.435 97.5905C148.765 97.5905 151.636 97.746 154.046 98.198C156.462 98.6505 158.682 99.447 160.484 100.923C164.235 103.995 164.783 108.807 164.783 113.758C164.783 118.853 164.793 120.998 165.067 122.828C165.329 124.58 165.838 126.083 167.173 129.909Z" fill="white"/>
<path d="M166.487 59.9847C166.385 59.3979 166.317 58.8036 166.281 58.205C166.687 54.22 170 46.25 180 46.25C195.224 46.25 208.97 52.5793 218.749 62.75C220.949 70.95 217.16 73.2371 214.99 73.3557C212.498 74.2789 210.068 75.8327 208.157 78.3068C204.093 83.5667 199.735 86.8025 195.315 88.1034C190.809 89.4292 186.557 88.6403 183.159 86.4416C178.129 83.1858 177.479 78.6355 177.053 75.6559C177.028 75.4768 177.003 75.3034 176.978 75.1362C176.746 73.5793 176.54 72.6415 176.122 71.8673C175.773 71.2222 175.139 70.4498 173.563 69.6847C169.429 67.678 167.174 63.9459 166.487 59.9847Z" fill="white"/>
<path d="M212.185 104.659C216.213 101.764 220.254 100.955 223.957 101.34C226.241 99.643 231.376 97.65 233.653 103.25C232.152 128.416 213.336 148.919 188.954 153.007C186.049 149.813 188.475 144.887 190.051 142.824C191.535 140.035 192.274 137.785 192.587 135.956C193.052 133.231 192.61 131.19 191.88 129.335C191.492 128.351 191.027 127.429 190.498 126.383L190.466 126.32L190.463 126.313C189.971 125.343 189.39 124.195 188.954 123.004C187.965 120.303 187.664 117.214 189.492 113.711C190.796 111.211 192.687 109.758 194.953 109.043C196.691 108.495 198.642 108.413 200.174 108.348L200.176 108.348L200.637 108.328C204.01 108.174 207.681 107.896 212.185 104.659Z" fill="white"/>
</g>
<circle cx="180" cy="100" r="150" fill="white" fill-opacity="0.12"/>
<circle cx="180" cy="100" r="90" fill="white" fill-opacity="0.12"/>
<circle cx="180" cy="100" r="120" fill="white" fill-opacity="0.12"/>
</g>
<defs>
<filter id="filter0_d_393_1212" x="104" y="36" width="152" height="152" filterUnits="userSpaceOnUse" color-interpolation-filters="sRGB">
<feFlood flood-opacity="0" result="BackgroundImageFix"/>
<feColorMatrix in="SourceAlpha" type="matrix" values="0 0 0 0 0 0 0 0 0 0 0 0 0 0 0 0 0 0 127 0" result="hardAlpha"/>
<feOffset dy="12"/>
<feGaussianBlur stdDeviation="8"/>
<feColorMatrix type="matrix" values="0 0 0 0 0 0 0 0 0 0 0 0 0 0 0 0 0 0 0.08 0"/>
<feBlend mode="normal" in2="BackgroundImageFix" result="effect1_dropShadow_393_1212"/>
<feBlend mode="normal" in="SourceGraphic" in2="effect1_dropShadow_393_1212" result="shape"/>
</filter>
<clipPath id="clip0_393_1212">
<rect width="361" height="200" fill="white"/>
</clipPath>
</defs>
</svg>
