<svg width="24" height="24" viewBox="0 0 24 24" fill="none" xmlns="http://www.w3.org/2000/svg">
<g clip-path="url(#clip0_557_489)">
<circle cx="12" cy="12" r="12" fill="#EAEAEA"/>
<path fill-rule="evenodd" clip-rule="evenodd" d="M4.02 20.9623C3.99718 20.8094 3.9937 20.6538 4.01053 20.4958C4.07595 19.8814 4.43587 19.38 4.81467 18.9994C5.42033 18.391 6.30443 17.8791 6.8893 17.5405C7.02275 17.4632 7.14065 17.3949 7.23608 17.3366C10.1522 15.5545 13.8479 15.5545 16.7639 17.3366C16.8594 17.3949 16.9773 17.4632 17.1108 17.5405C17.6956 17.8791 18.5797 18.391 19.1854 18.9994C19.5641 19.38 19.9241 19.8814 19.9895 20.4958C20.0063 20.6538 20.0028 20.8094 19.98 20.9623C17.8594 22.8518 15.0638 24 12 24C8.93623 24 6.14062 22.8518 4.02 20.9623Z" fill="white"/>
<path d="M7.60486 7.39535C7.60486 4.96786 9.57272 3 12.0002 3C14.4277 3 16.3956 4.96786 16.3956 7.39535C16.3956 9.82283 14.4277 11.7907 12.0002 11.7907C9.57272 11.7907 7.60486 9.82283 7.60486 7.39535Z" fill="white"/>
</g>
<defs>
<clipPath id="clip0_557_489">
<rect width="24" height="24" fill="white"/>
</clipPath>
</defs>
</svg>
