<svg width="24" height="24" viewBox="0 0 24 24" fill="none" xmlns="http://www.w3.org/2000/svg">
<path d="M21.0853 2.91463C19.8659 1.69512 17.8887 1.69512 16.6691 2.91463L15.3385 4.24529C14.9576 4.62625 14.7671 4.81672 14.7671 5.05341C14.7671 5.29011 14.9576 5.48058 15.3385 5.86154L18.1385 8.66148C18.5194 9.0425 18.7099 9.2329 18.9466 9.2329C19.1833 9.2329 19.3737 9.0425 19.7547 8.66148L21.0853 7.33083C22.3049 6.11133 22.3049 4.13412 21.0853 2.91463Z" fill="#222222"/>
<path d="M16.9263 11.4899C17.3072 11.109 17.4977 10.9185 17.4977 10.6818C17.4977 10.4451 17.3072 10.2546 16.9263 9.8737L14.1263 7.07372C13.7454 6.69276 13.5548 6.50229 13.3182 6.50229C13.0815 6.50229 12.8911 6.69276 12.51 7.07372L5.56508 14.0187C4.4581 15.1254 3.78153 15.8018 3.31619 16.6346C2.85085 17.4673 2.62938 18.398 2.267 19.9208L2.02332 20.9443C1.95439 21.2338 2.04059 21.5385 2.25107 21.7489C2.46154 21.9594 2.76613 22.0456 3.05569 21.9767L4.07921 21.733C5.60199 21.3706 6.53268 21.1491 7.36543 20.6837C8.19816 20.2185 8.87462 19.5419 9.98136 18.4349L16.9263 11.4899Z" fill="#222222"/>
</svg>
