<svg width="24" height="24" viewBox="0 0 24 24" fill="none" xmlns="http://www.w3.org/2000/svg">
<path d="M10.2 6C10.2 5.00589 11.0059 4.2 12 4.2C12.9941 4.2 13.8 5.00589 13.8 6C13.8 6.99411 12.9941 7.8 12 7.8C11.0059 7.8 10.2 6.99411 10.2 6Z" fill="#999999"/>
<path d="M10.2 18C10.2 17.0059 11.0059 16.2 12 16.2C12.9941 16.2 13.8 17.0059 13.8 18C13.8 18.9941 12.9941 19.8 12 19.8C11.0059 19.8 10.2 18.9941 10.2 18Z" fill="#999999"/>
<path d="M10.2 12C10.2 11.0059 11.0059 10.2 12 10.2C12.9941 10.2 13.8 11.0059 13.8 12C13.8 12.9941 12.9941 13.8 12 13.8C11.0059 13.8 10.2 12.9941 10.2 12Z" fill="#999999"/>
</svg>
