<svg width="20" height="20" viewBox="0 0 20 20" fill="none" xmlns="http://www.w3.org/2000/svg">
<path d="M10 2C18 2 20 7.5 20 10C20 11.2985 19.4604 13.4065 17.8207 15.1326L19.4605 16.408C19.7875 16.6623 19.8464 17.1335 19.592 17.4605C19.3377 17.7874 18.8665 17.8463 18.5396 17.592L14.693 14.6002L11.9021 12.4346C12.6341 11.8898 13 11.0023 13 10C13 8.34315 12 7 10 7C8.5252 7 7.59415 7.73035 7.20687 8.77828L2.17776 4.86904L2.17934 4.86738L0.539579 3.59201C0.212619 3.33771 0.153718 2.8665 0.40802 2.53954C0.662323 2.21258 1.13353 2.15368 1.46049 2.40799L3.33205 3.86364C4.85482 2.76949 7.00771 2 10 2Z" fill="#DFE0E2"/>
<path d="M10 18C2 18 0 12.5 0 9.99996C0 9.00428 0.317242 7.53274 1.20442 6.12231L7.06047 10.6838C7.30411 12.0112 8.28395 13 10 13C10.0113 13 10.0226 13 10.0339 12.9999L15.1692 17C13.8177 17.6139 12.1194 18 10 18Z" fill="#DFE0E2"/>
</svg>
