<svg width="24" height="24" viewBox="0 0 24 24" fill="none" xmlns="http://www.w3.org/2000/svg">
<path fill-rule="evenodd" clip-rule="evenodd" d="M10.1352 3H12.6751C14.9118 3 16.725 4.8132 16.725 7.04989C16.725 7.54695 16.3221 7.94988 15.825 7.94988C15.328 7.94988 14.925 7.54695 14.925 7.04989C14.925 5.80731 13.9177 4.8 12.6751 4.8H10.2C8.68964 4.8 7.64741 4.80191 6.86353 4.9073C6.10553 5.00921 5.72523 5.1928 5.45902 5.45901C5.1928 5.72523 5.00922 6.10553 4.90731 6.86352C4.80192 7.6474 4.8 8.68962 4.8 10.2V13.8C4.8 15.3104 4.80192 16.3526 4.90731 17.1365C5.00922 17.8945 5.1928 18.2748 5.45902 18.541C5.72523 18.8072 6.10553 18.9908 6.86353 19.0927C7.64741 19.1981 8.68964 19.2 10.2 19.2H12.6751C13.9177 19.2 14.925 18.1927 14.925 16.9501C14.925 16.4531 15.328 16.0501 15.825 16.0501C16.3221 16.0501 16.725 16.4531 16.725 16.9501C16.725 19.1868 14.9118 21 12.6751 21H10.1352C8.7054 21 7.54155 21 6.62368 20.8766C5.66609 20.7479 4.84262 20.4702 4.18622 19.8138C3.52982 19.1574 3.2521 18.3339 3.12335 17.3763C2.99995 16.4585 2.99997 15.2946 3 13.8648V10.1352C2.99997 8.70537 2.99995 7.54154 3.12335 6.62367C3.2521 5.66608 3.52982 4.84262 4.18622 4.18622C4.84262 3.52982 5.66609 3.2521 6.62368 3.12335C7.54155 2.99995 8.70538 2.99997 10.1352 3ZM21 12.0224C21.0017 11.7837 20.9085 11.5541 20.7409 11.3841L18.4909 9.10216C18.1419 8.74822 17.572 8.7442 17.2181 9.09318C16.8642 9.44217 16.8601 10.012 17.2091 10.366L17.9487 11.116L11.759 11.1161C11.262 11.1161 10.859 11.5191 10.859 12.0161C10.859 12.5132 11.262 12.9161 11.759 12.9161L17.905 12.916L17.2182 13.5931C16.8642 13.9421 16.8601 14.5119 17.2091 14.8659C17.558 15.2198 18.1279 15.2239 18.4818 14.875L20.7318 12.6569C20.9018 12.4893 20.9983 12.2611 21 12.0224Z" fill="#FF3F3F"/>
</svg>
