<svg width="24" height="24" viewBox="0 0 24 24" fill="none" xmlns="http://www.w3.org/2000/svg">
<path d="M18.6852 14.1277C17.5779 13.5764 16.2871 13.5912 15.2358 14.4197C14.802 14.7615 14.1732 14.687 13.8314 14.2532C13.4896 13.8195 13.5641 13.1907 13.9979 12.8489C15.7522 11.4664 17.8926 11.499 19.5765 12.3373C21.242 13.1665 22.5692 14.8336 22.7215 16.8715L22.7255 16.9242C22.7435 17.1591 22.7676 17.4754 22.7274 17.7536C22.6694 18.1541 22.476 18.5461 22.0607 18.819C21.5986 19.1226 21.1227 19.0932 20.7534 18.9802C20.4756 18.8951 20.1751 18.7355 19.9238 18.6022L19.0238 18.1253C18.5358 17.8668 18.3497 17.2616 18.6083 16.7736C18.8668 16.2855 19.472 16.0995 19.9601 16.358L20.6945 16.7471C20.5105 15.6227 19.7272 14.6465 18.6852 14.1277Z" fill="white"/>
<path d="M14.5735 15.8812L15.4736 16.358C15.9616 16.6165 16.1477 17.2218 15.8891 17.7098C15.6306 18.1978 15.0254 18.3839 14.5373 18.1253L13.8094 17.7397C14.0008 18.8528 14.7829 19.8303 15.8169 20.3576C16.92 20.9202 18.1806 20.9114 19.1862 20.1169C19.6195 19.7745 20.2484 19.8483 20.5908 20.2816C20.9331 20.715 20.8594 21.3438 20.4261 21.6862C18.6954 23.0536 16.5709 22.9872 14.9083 22.1393C13.263 21.3003 11.9413 19.6372 11.7803 17.6168L11.776 17.5641C11.757 17.3301 11.7313 17.0139 11.7706 16.7352C11.8274 16.3327 12.021 15.9408 12.435 15.6673C12.8965 15.3624 13.3728 15.3902 13.7436 15.5034C14.0218 15.5882 14.3226 15.7479 14.5735 15.8812Z" fill="white"/>
<path d="M8.75 17.1838C8.75 17.3864 8.75 17.4877 8.7977 17.5618C8.84539 17.636 8.94451 17.6811 9.14275 17.7714C9.36402 17.8723 9.6448 18.0102 10.0237 18.1986C10.1652 18.269 10.3285 18.148 10.31 17.991C10.3 17.9066 10.2916 17.8216 10.2848 17.736L10.2807 17.6858L10.278 17.6529C10.2599 17.4347 10.2218 16.974 10.2851 16.5254C10.3918 15.7701 10.7783 14.9638 11.608 14.4157C11.6923 14.3601 11.7768 14.31 11.8612 14.2651C12.007 14.1876 12.0799 14.1488 12.1086 14.0974C12.1373 14.046 12.132 13.9619 12.1214 13.7938C12.0715 13.0017 12.3987 12.1991 13.0692 11.6707C13.3812 11.4249 13.7024 11.2139 14.03 11.0356C14.1392 10.9761 14.1939 10.9464 14.2219 10.8991C14.25 10.8519 14.25 10.7923 14.25 10.6731V4.07979C14.25 3.89894 14.25 3.80852 14.205 3.73592C14.16 3.66332 14.0791 3.62306 13.9171 3.54254L11.1426 2.16295C10.4736 1.8303 9.92553 1.55778 9.45232 1.3752C9.16028 1.26252 9.01425 1.20618 8.88544 1.29069L8.87522 1.2977C8.75 1.38746 8.75 1.55645 8.75 1.89444V17.1838Z" fill="white"/>
<path d="M22.75 11.8782C22.75 12.3478 22.75 12.5827 22.6301 12.6351C22.5103 12.6875 22.3294 12.5202 21.9676 12.1857C21.4458 11.7032 20.8614 11.3015 20.2448 10.9945C19.0513 10.4003 17.6461 10.1191 16.2378 10.3105C16.0039 10.3424 15.8869 10.3583 15.8185 10.2985C15.75 10.2387 15.75 10.1261 15.75 9.90077V4.33965C15.75 4.24512 15.8268 4.16858 15.9214 4.16858H18.0529C18.9506 4.16855 19.7008 4.16852 20.2966 4.2504C20.9275 4.33709 21.4955 4.52798 21.9503 4.99279C22.4028 5.45532 22.5866 6.02921 22.6704 6.66608C22.7501 7.27182 22.75 8.03569 22.75 8.95564V11.8782Z" fill="white"/>
<path d="M7.25 1.95738C7.25 1.62985 7.25 1.46608 7.13415 1.376C7.1208 1.36562 7.10282 1.35411 7.08779 1.34635C6.95744 1.27894 6.81999 1.34243 6.54509 1.46939C6.08426 1.68222 5.55431 1.98965 4.90724 2.36504L3.6187 3.11252C3.15062 3.38403 2.75247 3.61498 2.44084 3.84001C2.10848 4.08 1.82705 4.34551 1.61998 4.70899C1.4134 5.0716 1.32728 5.45024 1.28746 5.86054C1.24997 6.24691 1.24999 6.71324 1.25 7.26438V15.5035C1.24999 16.2326 1.24998 16.8354 1.29639 17.3069C1.34327 17.783 1.44676 18.2613 1.75833 18.6479C2.09802 19.0693 2.57688 19.3558 3.11024 19.451C3.60335 19.539 4.0707 19.3911 4.5015 19.1966C4.92742 19.0043 5.49919 18.6726 6.11822 18.3135C6.40134 18.1492 6.6546 18.0023 6.89091 17.8802C7.07195 17.7867 7.16247 17.7399 7.20624 17.668C7.25 17.5962 7.25 17.5016 7.25 17.3124V1.95738Z" fill="white"/>
</svg>
