<svg width="24" height="24" viewBox="0 0 24 24" fill="none" xmlns="http://www.w3.org/2000/svg">
<path fill-rule="evenodd" clip-rule="evenodd" d="M9.48545 22.2955C9.76764 22.4939 10.07 22.568 10.3576 22.6H13.2424C13.53 22.568 13.8324 22.4939 14.1146 22.2955C14.3966 22.0972 14.5641 21.8411 14.686 21.5855C14.7954 21.3559 15.347 19.748 15.347 19.748C15.347 19.748 15.6164 19.3025 15.8378 19.1607C16.2723 18.8823 16.7108 18.8219 16.9964 18.8823C16.9964 18.8823 18.9317 19.4145 19.205 19.4567C19.5089 19.5038 19.8415 19.5097 20.1853 19.3736C20.5291 19.2375 20.763 19.0073 20.9471 18.7673L22.4268 16.2733C22.5426 16.0129 22.628 15.7189 22.5915 15.3799C22.5548 15.0408 22.4085 14.7706 22.2396 14.5393C22.0879 14.3316 20.8095 12.9416 20.5882 12.7022C20.5882 12.7022 20.3208 12.3016 20.3208 11.7998C20.3208 11.2124 20.5882 10.8977 20.5882 10.8977C20.5882 10.8977 22.0879 9.26826 22.2396 9.06062C22.4085 8.82936 22.5548 8.5591 22.5915 8.22003C22.628 7.881 22.5426 7.58702 22.4268 7.32662C22.3227 7.09277 20.9471 4.83261 20.9471 4.83261C20.763 4.59258 20.5291 4.36242 20.1853 4.22632C19.8415 4.09017 19.5089 4.09616 19.205 4.14315C18.9317 4.18539 17.3358 4.62376 16.9964 4.71756C16.9964 4.71756 16.4519 4.83261 15.8378 4.43921C15.6164 4.29745 15.4449 4.09245 15.3469 3.85192C15.3469 3.85192 14.7954 2.24405 14.686 2.01451C14.5641 1.75894 14.3966 1.5028 14.1146 1.30449C13.8324 1.10609 13.53 1.03203 13.2424 1H10.3576C10.07 1.03203 9.76764 1.10609 9.48545 1.30449C9.20338 1.5028 9.03596 1.75894 8.91407 2.01451C8.80459 2.24405 8.25304 3.85192 8.25304 3.85192C8.15502 4.09245 7.98354 4.29745 7.76222 4.43921C7.14805 4.83261 6.60359 4.71756 6.60359 4.71756C6.26418 4.62376 4.6683 4.18539 4.39499 4.14315C4.09104 4.09616 3.75851 4.09017 3.41466 4.22632C3.07094 4.36242 2.83705 4.59258 2.6529 4.83261C2.6529 4.83261 1.27727 7.09277 1.17324 7.32662C1.05742 7.58702 0.971979 7.881 1.00857 8.22003C1.04515 8.5591 1.19151 8.82936 1.36044 9.06062C1.51213 9.26826 3.01174 10.8977 3.01174 10.8977C3.01174 10.8977 3.27922 11.2124 3.27922 11.7998C3.27922 12.3016 3.01176 12.7022 3.01176 12.7022C2.79057 12.9416 1.51213 14.3316 1.36045 14.5393C1.19151 14.7706 1.04515 15.0408 1.00857 15.3799C0.971979 15.7189 1.05742 16.0129 1.17325 16.2733L2.65288 18.7673C2.83704 19.0073 3.07093 19.2375 3.41468 19.3736C3.75853 19.5097 4.09105 19.5038 4.39501 19.4567C4.66833 19.4145 6.60354 18.8823 6.60354 18.8823C6.88922 18.8219 7.3277 18.8823 7.76227 19.1607C7.98356 19.3025 8.253 19.748 8.253 19.748C8.253 19.748 8.80459 21.3559 8.91407 21.5855C9.03596 21.8411 9.20338 22.0972 9.48545 22.2955ZM11.8201 15.3163C13.8083 15.3163 15.4201 13.742 15.4201 11.8C15.4201 9.85801 13.8083 8.28372 11.8201 8.28372C9.83183 8.28372 8.22009 9.85801 8.22009 11.8C8.22009 13.742 9.83183 15.3163 11.8201 15.3163Z" fill="#222222"/>
</svg>
