<svg width="24" height="24" viewBox="0 0 24 24" fill="none" xmlns="http://www.w3.org/2000/svg">
<path d="M18.1518 16.4548C18.6204 16.9234 18.6204 17.6832 18.1518 18.1518C17.6832 18.6205 16.9234 18.6205 16.4547 18.1518L12 13.6971L7.54523 18.1518C7.0766 18.6205 6.31681 18.6205 5.84818 18.1518C5.37955 17.6832 5.37955 16.9234 5.84818 16.4548L10.3029 12L5.84815 7.54523C5.37952 7.0766 5.37952 6.31681 5.84815 5.84818C6.31677 5.37955 7.07657 5.37955 7.5452 5.84818L12 10.303L16.4548 5.84818C16.9234 5.37955 17.6832 5.37955 18.1518 5.84818C18.6205 6.31681 18.6205 7.0766 18.1518 7.54523L13.697 12L18.1518 16.4548Z" fill="#222222"/>
</svg>
